<svg xmlns="http://www.w3.org/2000/svg" viewBox="0 0 64 64" width="64" height="64">
    <!-- Ghostly outer aura -->
    <ellipse cx="32" cy="34" rx="18" ry="20" fill="#1a0a2e" opacity="0.6" />
    <!-- Main body - ethereal shape -->
    <path
        d="M32 12 C44 12 50 24 50 36 C50 44 46 52 42 52 L38 48 L34 52 L30 48 L26 52 L22 52 C18 52 14 44 14 36 C14 24 20 12 32 12 Z"
        fill="#2d1b4e" stroke="#9b6dff" stroke-width="2" />
    <!-- Inner glow -->
    <ellipse cx="32" cy="30" rx="10" ry="12" fill="#4a2d7a" opacity="0.8" />
    <!-- Eyes -->
    <ellipse cx="26" cy="28" rx="4" ry="5" fill="#9b6dff" />
    <ellipse cx="38" cy="28" rx="4" ry="5" fill="#9b6dff" />
    <!-- Eye cores -->
    <circle cx="26" cy="29" r="2" fill="#e0d0ff" />
    <circle cx="38" cy="29" r="2" fill="#e0d0ff" />
    <!-- Wispy trails -->
    <path d="M20 40 Q16 48 18 54" stroke="#9b6dff" stroke-width="2" fill="none" opacity="0.5" />
    <path d="M44 40 Q48 48 46 54" stroke="#9b6dff" stroke-width="2" fill="none" opacity="0.5" />
</svg>