<svg xmlns="http://www.w3.org/2000/svg" viewBox="0 0 64 64">
  <defs>
    <linearGradient id="flare" x1="32" y1="44" x2="32" y2="64" gradientUnits="userSpaceOnUse">
      <stop stop-color="#ffbf5f" offset="0" />
      <stop stop-color="#ff5f3f" offset="1" />
    </linearGradient>
  </defs>
  <rect width="64" height="64" fill="#06080c" rx="12" ry="12" />
  <path
    fill="#0f1b2d"
    d="M32 6c-6 7-10 16-10 26s4 19 10 26c6-7 10-16 10-26S38 13 32 6z"
  />
  <path
    fill="#9ff0ff"
    d="M32 8c-5.2 6.5-8.5 14.9-8.5 24S26.8 49.5 32 56c5.2-6.5 8.5-14.9 8.5-24S37.2 14.5 32 8z"
  />
  <path
    fill="#0f1b2d"
    d="M19 34c-3.5 1.4-7 3.8-9 7.5 4.6.7 9.2-.2 13-2.2C21.5 38.4 20.1 36.3 19 34zm26 5.3c3.8 2 8.4 2.9 13 2.2-2-3.7-5.5-6.1-9-7.5-1.1 2.3-2.5 4.4-4 6.3z"
  />
  <circle cx="32" cy="26" r="7" fill="#0f1b2d" stroke="#f4f6fb" stroke-width="2" />
  <circle cx="32" cy="26" r="4" fill="#6dd6ff" />
  <path
    fill="url(#flare)"
    d="M28 48c0 4 1.5 8 4 12 2.5-4 4-8 4-12 0-2.5-1.8-4-4-4s-4 1.5-4 4z"
  />
  <path
    fill="#f14e4e"
    d="M26 46c2 2 6 2 8 0-2.4-.7-5.6-.7-8 0z"
  />
</svg>
